<?xml version="1.0" encoding="UTF-8" standalone="no"?>
<svg
   width="1440000"
   height="396900"
   viewBox="0 0 1440000 396900"
   version="1.1"
   xml:space="preserve"
   style="clip-rule:evenodd;fill-rule:evenodd;stroke-linejoin:round;stroke-miterlimit:2"
   id="svg2"
   xmlns="http://www.w3.org/2000/svg"
   xmlns:svg="http://www.w3.org/2000/svg"><defs
   id="defs2" />
    <rect
   id="rect2577"
   x="0"
   y="0"
   width="1200"
   height="630"
   style="fill:#ffffff" />
<g
   id="g10"
   transform="translate(-79.131305,92.751552)"><text
     xml:space="preserve"
     style="font-size:108.27px;text-align:start;letter-spacing:-5.48322px;writing-mode:lr-tb;direction:ltr;text-anchor:start;fill:#000000;stroke-width:9.02247"
     x="516.60291"
     y="273.15213"
     id="text1-9"><tspan
       id="tspan1-7"
       style="font-style:normal;font-variant:normal;font-weight:500;font-stretch:normal;font-family:Inter;-inkscape-font-specification:'Inter Medium';letter-spacing:-5.48322px;stroke-width:9.02247"
       x="516.60291"
       y="273.15213">mov</tspan></text><text
     xml:space="preserve"
     style="font-size:81.0818px;text-align:start;writing-mode:lr-tb;direction:ltr;text-anchor:start;fill:#000000;stroke-width:6.75684"
     x="720.52686"
     y="273.18515"
     id="text1-5-5"><tspan
       id="tspan1-2-3"
       style="font-style:normal;font-variant:normal;font-weight:800;font-stretch:normal;font-family:Inter;-inkscape-font-specification:'Inter Ultra-Bold';fill:#000000;stroke-width:6.75684"
       x="720.52686"
       y="273.18515">GR</tspan></text></g><g
   id="g9"
   transform="matrix(1.2431244,0,0,1.2431244,173.10598,-68.199648)"><rect
     width="74.754623"
     height="74.754623"
     x="306.02679"
     y="173.10942"
     rx="9.3443279"
     id="rect1-1-1-4"
     style="fill:none;stroke:#000000;stroke-width:9.34431;stroke-linecap:round;stroke-linejoin:round" /><path
     d="m 324.71545,247.86404 -9.34433,14.01649"
     id="path3-1-8-0"
     style="fill:none;stroke:#000000;stroke-width:9.34431;stroke-linecap:round;stroke-linejoin:round" /><path
     d="m 371.43709,261.88053 -9.34433,-14.01649"
     id="path4-0-5-5"
     style="fill:none;stroke:#000000;stroke-width:9.34431;stroke-linecap:round;stroke-linejoin:round" /><path
     style="fill:#000000;stroke:none;stroke-width:1.498;stroke-linecap:round;stroke-linejoin:round;stroke-dasharray:none;stroke-opacity:1"
     id="path14"
     d="m -3.6214817,-65.276105 -7.5121813,-0.0061 -5.30757,5.31626 -5.307568,-5.31626 -7.512183,0.0061 0.0061,-7.512181 -5.31626,-5.30757 5.31626,-5.307568 -0.0061,-7.512183 7.512182,0.0061 5.307569,-5.31626 5.307569,5.31626 7.5121822,-0.0061 -0.00615,7.512182 5.3162605,5.307569 -5.31626,5.307569 z"
     transform="matrix(0.44258079,0,0,0.44258079,350.68068,245.05046)" /><path
     style="stroke-width:1.29791;stroke-linecap:round;stroke-linejoin:round"
     d="m 343.40389,184.12068 a 2.8349301,2.8349301 0 0 0 -2.00517,0.83147 l -6.05858,6.06872 -8.57328,-0.008 a 2.8349301,2.8349301 0 0 0 -2.83664,2.83663 l 0.008,8.57328 -6.06619,6.05859 a 2.8349301,2.8349301 0 0 0 0,4.01032 l 6.06619,6.05859 -0.008,8.57328 a 2.8349301,2.8349301 0 0 0 2.83664,2.83663 l 8.57328,-0.008 6.05858,6.06619 a 2.8349301,2.8349301 0 0 0 4.01033,0 l 6.05859,-6.06619 8.57327,0.008 a 2.8349301,2.8349301 0 0 0 2.83664,-2.83658 l -0.008,-8.57328 6.06873,-6.05858 a 2.8349301,2.8349301 0 0 0 0,-4.01033 l -6.06873,-6.05859 0.008,-8.57327 a 2.8349301,2.8349301 0 0 0 -2.83664,-2.83664 l -8.57327,0.008 -6.05859,-6.06873 a 2.8349301,2.8349301 0 0 0 -2.00516,-0.83147 z m 0,6.84442 4.88235,4.8925 a 2.8349301,2.8349301 0 0 0 2.0077,0.83401 l 6.91288,-0.008 -0.008,6.91287 a 2.8349301,2.8349301 0 0 0 0.83401,2.0077 l 4.89249,4.88236 -4.89249,4.88236 a 2.8349301,2.8349301 0 0 0 -0.83401,2.00775 l 0.008,6.91034 -6.91288,-0.005 a 2.8349301,2.8349301 0 0 0 -2.00769,0.83147 l -4.88236,4.8925 -4.88236,-4.8925 a 2.8349301,2.8349301 0 0 0 -2.0077,-0.83147 l -6.91034,0.005 0.005,-6.91034 a 2.8349301,2.8349301 0 0 0 -0.83148,-2.0077 l -4.89249,-4.88235 4.89249,-4.88236 a 2.8349301,2.8349301 0 0 0 0.83148,-2.0077 l -0.005,-6.91287 6.91034,0.008 a 2.8349301,2.8349301 0 0 0 2.0077,-0.834 z"
     id="path14-7" /></g><g
   style="fill:none;stroke:currentColor;stroke-width:2;stroke-linecap:round;stroke-linejoin:round"
   id="g5"
   transform="matrix(2.6923435,0,0,2.6923435,630.01969,426.88727)"><rect
     width="16"
     height="16"
     x="4"
     y="3"
     rx="2"
     id="rect1" /><path
     d="M 4,11 H 20"
     id="path1" /><path
     d="m 12,3 v 8"
     id="path2" /><path
     d="M 8,19 6,22"
     id="path3" /><path
     d="M 18,22 16,19"
     id="path4" /><path
     d="M 8,15 H 8.01"
     id="path5" /><path
     d="m 16,15 h 0.01"
     id="path6" /></g><g
   style="fill:none;stroke:currentColor;stroke-width:2;stroke-linecap:round;stroke-linejoin:round"
   id="g6"
   transform="matrix(2.6923435,0,0,2.6923435,510.74875,428.23344)"><path
     d="M 4,6 2,7"
     id="path1-7" /><path
     d="m 10,6 h 4"
     id="path2-4" /><path
     d="M 22,7 20,6"
     id="path3-4" /><rect
     width="16"
     height="16"
     x="4"
     y="3"
     rx="2"
     id="rect3-9" /><path
     d="M 4,11 H 20"
     id="path4-1" /><path
     d="M 8,15 H 8.01"
     id="path5-5" /><path
     d="m 16,15 h 0.01"
     id="path6-5" /><path
     d="m 6,19 v 2"
     id="path7" /><path
     d="M 18,21 V 19"
     id="path8" /></g><path
   style="fill:none;fill-opacity:1;stroke:#000000;stroke-width:2.87512;stroke-linecap:round;stroke-linejoin:round;stroke-dasharray:none;stroke-opacity:1"
   d="m 604.66368,434.86587 v 50.99999"
   id="path9" /></svg>
