<?xml version="1.0" encoding="UTF-8" standalone="no"?>
<svg
   width="1080"
   height="1080"
   viewBox="0 0 1080 1080"
   version="1.1"
   xml:space="preserve"
   style="clip-rule:evenodd;fill-rule:evenodd;stroke-linejoin:round;stroke-miterlimit:2"
   id="svg2"
   xmlns="http://www.w3.org/2000/svg"
   xmlns:svg="http://www.w3.org/2000/svg"
   xmlns:serif="http://www.serif.com/"><defs
   id="defs2" />
    <rect
   id="Artboard1"
   x="-0.00015049147"
   y="0.00010446428"
   width="1080"
   height="1080"
   style="fill:none" />
    <g
   id="Artboard11"
   serif:id="Artboard1">
        <g
   transform="matrix(0.94255647,0,0,0.94215347,30.939564,20.576527)"
   id="g1"
   style="fill:#000000;fill-opacity:1">
            <rect
   x="-32.825001"
   y="-21.84"
   width="1145.8199"
   height="1146.3101"
   style="fill:#000000;fill-opacity:1"
   id="rect1" />
        </g>
        
    <rect
   width="533.3335"
   height="533.3335"
   x="273.3331"
   y="223.33336"
   rx="66.666687"
   id="rect1-1-1-4"
   style="fill:none;stroke:#ffffff;stroke-width:66.6665;stroke-linecap:round;stroke-linejoin:round;stroke-opacity:1" /><path
   d="m 406.6665,756.6669 -66.66669,99.99995"
   id="path3-1-8-0"
   style="fill:none;stroke:#ffffff;stroke-width:66.6665;stroke-linecap:round;stroke-linejoin:round;stroke-opacity:1" /><path
   d="M 739.99991,856.66685 673.33322,756.6669"
   id="path4-0-5-5"
   style="fill:none;stroke:#ffffff;stroke-width:66.6665;stroke-linecap:round;stroke-linejoin:round;stroke-opacity:1" /><path
   style="fill:#ffffff;stroke:none;stroke-width:4.73004;stroke-linecap:round;stroke-linejoin:round;stroke-dasharray:none;stroke-opacity:1"
   id="path14"
   d="m 580.47916,530.47947 -23.72026,-0.0193 -16.75904,16.78648 -16.75903,-16.78648 -23.72026,0.0193 0.0193,-23.72026 -16.78647,-16.75904 16.78647,-16.75903 -0.0193,-23.72026 23.72026,0.0193 16.75903,-16.78648 16.75904,16.78648 23.72026,-0.0193 -0.0194,23.72026 16.78648,16.75903 -16.78648,16.75904 z" /><path
   style="fill:none;stroke:#ffffff;stroke-width:40.4473;stroke-linecap:round;stroke-linejoin:round;stroke-dasharray:none;stroke-opacity:1"
   id="path14-7"
   d="m 658.70891,608.70919 -69.56169,-0.0565 -49.14731,49.22779 -49.1473,-49.22779 -69.56171,0.0565 0.0565,-69.56169 -49.22779,-49.14732 49.22779,-49.14729 -0.0565,-69.56171 69.5617,0.0565 49.14731,-49.22779 49.1473,49.22779 69.5617,-0.0565 -0.0569,69.5617 49.22779,49.1473 -49.22778,49.14731 z" /></g>
</svg>
