<?xml version="1.0" encoding="UTF-8" standalone="no"?>
<svg
   width="262144"
   height="262144"
   viewBox="0 0 262144 262144"
   version="1.1"
   xml:space="preserve"
   style="clip-rule:evenodd;fill-rule:evenodd;stroke-linejoin:round;stroke-miterlimit:2"
   id="svg1"
   xmlns="http://www.w3.org/2000/svg"
   xmlns:svg="http://www.w3.org/2000/svg"><defs
   id="defs1" />
    
<rect
   width="390.0954"
   height="390.0954"
   x="60.952301"
   y="24.380873"
   rx="48.761925"
   id="rect1-1-1-4"
   style="clip-rule:evenodd;fill:none;fill-rule:evenodd;stroke:#000000;stroke-width:48.7617;stroke-linecap:round;stroke-linejoin:round;stroke-miterlimit:2;stroke-opacity:1" /><path
   d="m 158.47616,414.4763 -48.76192,73.14283"
   id="path3-1-8-0"
   style="clip-rule:evenodd;fill:none;fill-rule:evenodd;stroke:#000000;stroke-width:48.7617;stroke-linecap:round;stroke-linejoin:round;stroke-miterlimit:2;stroke-opacity:1" /><path
   d="M 402.28576,487.61913 353.52384,414.4763"
   id="path4-0-5-5"
   style="clip-rule:evenodd;fill:none;fill-rule:evenodd;stroke:#000000;stroke-width:48.7617;stroke-linecap:round;stroke-linejoin:round;stroke-miterlimit:2;stroke-opacity:1" /><path
   style="clip-rule:evenodd;fill:#000000;fill-rule:evenodd;stroke:none;stroke-width:1.498;stroke-linecap:round;stroke-linejoin:round;stroke-miterlimit:2;stroke-dasharray:none;stroke-opacity:1"
   id="path14"
   d="m -3.6214817,-65.276105 -7.5121813,-0.0061 -5.30757,5.31626 -5.307568,-5.31626 -7.512183,0.0061 0.0061,-7.512181 -5.31626,-5.30757 5.31626,-5.307568 -0.0061,-7.512183 7.512182,0.0061 5.307569,-5.31626 5.307569,5.31626 7.5121822,-0.0061 -0.00615,7.512182 5.3162605,5.307569 -5.31626,5.307569 z"
   transform="matrix(2.309539,0,0,2.309539,293.97167,399.79405)" /><path
   style="clip-rule:evenodd;fill:none;fill-rule:evenodd;stroke:#000000;stroke-width:4.36803;stroke-linecap:round;stroke-linejoin:round;stroke-miterlimit:2;stroke-dasharray:none;stroke-opacity:1"
   id="path14-7"
   d="m -3.6214817,-65.276105 -7.5121813,-0.0061 -5.30757,5.31626 -5.307568,-5.31626 -7.512183,0.0061 0.0061,-7.512181 -5.31626,-5.30757 5.31626,-5.307568 -0.0061,-7.512183 7.512182,0.0061 5.307569,-5.31626 5.307569,5.31626 7.5121822,-0.0061 -0.00615,7.512182 5.3162605,5.307569 -5.31626,5.307569 z"
   transform="matrix(6.7729214,0,0,6.7729214,367.35521,748.36571)" /></svg>
