<?xml version="1.0" encoding="UTF-8" standalone="no"?>
<!-- Created with Inkscape (http://www.inkscape.org/) -->

<svg
   width="22.251177mm"
   height="25.959705mm"
   viewBox="0 0 22.251177 25.959705"
   version="1.1"
   id="svg1"
   xml:space="preserve"
   xmlns="http://www.w3.org/2000/svg"
   xmlns:svg="http://www.w3.org/2000/svg"><defs
     id="defs1" /><g
     id="layer1"
     transform="translate(-10.525185,39.036062)"><rect
       width="19.778828"
       height="19.778828"
       x="11.76136"
       y="-37.799885"
       rx="2.4723535"
       id="rect1-1-1-4"
       style="fill:none;stroke:#000000;stroke-width:2.47235;stroke-linecap:round;stroke-linejoin:round" /><path
       d="m 16.706066,-18.02106 -2.472353,3.70853"
       id="path3-1-8-0"
       style="fill:none;stroke:#000000;stroke-width:2.47235;stroke-linecap:round;stroke-linejoin:round" /><path
       d="M 29.067833,-14.31253 26.59548,-18.02106"
       id="path4-0-5-5"
       style="fill:none;stroke:#000000;stroke-width:2.47235;stroke-linecap:round;stroke-linejoin:round" /><path
       style="fill:#000000;stroke:none;stroke-width:1.498;stroke-linecap:round;stroke-linejoin:round;stroke-dasharray:none;stroke-opacity:1"
       id="path14"
       d="m -3.6214817,-65.276105 -7.5121813,-0.0061 -5.30757,5.31626 -5.307568,-5.31626 -7.512183,0.0061 0.0061,-7.512181 -5.31626,-5.30757 5.31626,-5.307568 -0.0061,-7.512183 7.512182,0.0061 5.307569,-5.31626 5.307569,5.31626 7.5121822,-0.0061 -0.00615,7.512182 5.3162605,5.307569 -5.31626,5.307569 z"
       transform="matrix(0.1170995,0,0,0.1170995,23.576034,-18.765485)" /><path
       style="stroke-linecap:round;stroke-linejoin:round"
       d="m -16.441406,-98.410156 a 2.1842334,2.1842334 0 0 0 -1.544922,0.640625 l -4.667969,4.675781 -6.605469,-0.0059 a 2.1842334,2.1842334 0 0 0 -2.185546,2.185547 l 0.0059,6.605468 -4.673828,4.667969 a 2.1842334,2.1842334 0 0 0 0,3.089844 l 4.673828,4.667969 -0.0059,6.605468 a 2.1842334,2.1842334 0 0 0 2.185546,2.185547 l 6.605469,-0.0059 4.667969,4.673828 a 2.1842334,2.1842334 0 0 0 3.089844,0 l 4.667968,-4.673828 6.6054691,0.0059 A 2.1842334,2.1842334 0 0 0 -1.4375,-65.277344 l -0.00586,-6.605468 4.6757813,-4.667969 a 2.1842334,2.1842334 0 0 0 0,-3.089844 l -4.6757813,-4.667969 0.00586,-6.605468 a 2.1842334,2.1842334 0 0 0 -2.1855469,-2.185547 l -6.6054691,0.0059 -4.667968,-4.675781 a 2.1842334,2.1842334 0 0 0 -1.544922,-0.640625 z m 0,5.273437 3.761718,3.769532 a 2.1842334,2.1842334 0 0 0 1.546875,0.642578 l 5.3261724,-0.0059 -0.00586,5.326172 a 2.1842334,2.1842334 0 0 0 0.6425781,1.546875 l 3.7695313,3.761719 -3.7695313,3.761719 A 2.1842334,2.1842334 0 0 0 -5.8125,-72.787109 l 0.00586,5.324218 -5.326172,-0.0039 a 2.1842334,2.1842334 0 0 0 -1.546875,0.640625 l -3.761718,3.769531 -3.761719,-3.769531 A 2.1842334,2.1842334 0 0 0 -21.75,-67.466797 l -5.324219,0.0039 0.0039,-5.324218 a 2.1842334,2.1842334 0 0 0 -0.640625,-1.546875 l -3.769532,-3.761719 3.769532,-3.761719 a 2.1842334,2.1842334 0 0 0 0.640625,-1.546875 l -0.0039,-5.326172 5.324219,0.0059 a 2.1842334,2.1842334 0 0 0 1.546875,-0.642578 z"
       id="path14-7"
       transform="matrix(0.34340434,0,0,0.34340434,27.296765,-1.0920152)" /></g></svg>
