<?xml version="1.0" encoding="UTF-8" standalone="no"?>
<!-- Created with Inkscape (http://www.inkscape.org/) -->

<svg
   width="110.03385mm"
   height="21.808735mm"
   viewBox="0 0 110.03385 21.808735"
   version="1.1"
   id="svg1"
   xml:space="preserve"
   xmlns="http://www.w3.org/2000/svg"
   xmlns:svg="http://www.w3.org/2000/svg"><defs
     id="defs1" /><g
     id="layer1"
     transform="translate(-44.185418,83.95966)"><path
       d="m 44.185418,-62.58334 v -21.019109 h 3.929332 l 0.094,3.929332 q 0.808428,-2.180873 2.425282,-3.233709 1.616855,-1.052836 3.496918,-1.052836 2.04927,0 3.402915,1.16564 1.353646,1.165639 1.974067,3.25251 0.789627,-2.124472 2.594488,-3.271311 1.823661,-1.146839 4.060937,-1.146839 1.861263,0 3.365313,0.808428 1.504051,0.808427 2.387681,2.406481 0.90243,1.598054 0.90243,3.985735 v 14.175678 h -4.136139 v -13.762064 q 0,-2.105672 -1.18444,-3.045703 -1.16564,-0.940032 -2.763694,-0.940032 -1.955266,0 -3.083304,1.203241 -1.109237,1.20324 -1.109237,3.083304 v 13.461254 h -4.079738 v -14.025273 q 0,-1.692057 -1.090437,-2.707292 -1.071636,-1.015234 -2.744892,-1.015234 -1.729659,0 -3.026903,1.203241 -1.278443,1.18444 -1.278443,3.478117 v 13.066441 z"
       id="text18"
       style="font-weight:500;font-size:38.5037px;font-family:Inter;-inkscape-font-specification:'Inter Medium';letter-spacing:-1.94998px;stroke-width:3.20864"
       aria-label="m" /><path
       d="m 85.270091,-62.150925 q -2.9517,0 -5.170175,-1.353646 -2.199674,-1.353646 -3.421715,-3.778927 -1.222042,-2.444083 -1.222042,-5.696593 0,-3.27131 1.222042,-5.715393 1.222041,-2.462883 3.421715,-3.816529 2.218475,-1.353645 5.170175,-1.353645 2.9705,0 5.170174,1.353645 2.218475,1.353646 3.440517,3.816529 1.222041,2.444083 1.222041,5.715393 0,3.25251 -1.222041,5.696593 -1.222042,2.425281 -3.440517,3.778927 -2.199674,1.353646 -5.170174,1.353646 z m 0,-3.496918 q 1.917665,0 3.158507,-0.996434 1.259642,-1.015234 1.861262,-2.66969 0.620421,-1.673256 0.620421,-3.666124 0,-2.011668 -0.620421,-3.684924 -0.60162,-1.692057 -1.861262,-2.688491 -1.240842,-1.015234 -3.158507,-1.015234 -1.898864,0 -3.139706,1.015234 -1.240842,0.996434 -1.861263,2.688491 -0.60162,1.673256 -0.60162,3.684924 0,1.992868 0.60162,3.666124 0.620421,1.654456 1.861263,2.66969 1.240842,0.996434 3.139706,0.996434 z"
       id="text17"
       style="font-weight:500;font-size:38.5037px;font-family:Inter;-inkscape-font-specification:'Inter Medium';letter-spacing:-1.94998px;stroke-width:3.20864"
       aria-label="o" /><path
       d="m 103.02318,-62.58334 -7.933871,-21.019109 h 4.474551 l 4.15494,11.938403 q 0.48882,1.391247 0.86483,2.782494 0.37601,1.372446 0.73322,2.763693 0.33842,-1.372446 0.71443,-2.763693 0.37601,-1.391247 0.84603,-2.782494 l 4.15494,-11.938403 h 4.43695 l -7.93387,21.019109 z"
       id="text16"
       style="font-weight:500;font-size:38.5037px;font-family:Inter;-inkscape-font-specification:'Inter Medium';letter-spacing:-1.94998px;stroke-width:3.20864"
       aria-label="v" /><path
       d="m 125.14502,-62.290015 q -2.99895,0 -5.26575,-1.295318 -2.26681,-1.309397 -3.53397,-3.716998 -1.26716,-2.407602 -1.26716,-5.716294 0,-3.435408 1.33756,-5.84301 1.33756,-2.421681 3.60436,-3.688839 2.26681,-1.281239 5.06864,-1.281239 2.4076,0 4.36466,0.915171 1.95705,0.90109 3.19605,2.520237 1.25308,1.605068 1.50651,3.68884 h -5.02639 q -0.35199,-1.309397 -1.3798,-2.027454 -1.01373,-0.732136 -2.57655,-0.732136 -2.29497,0 -3.66069,1.675466 -1.35163,1.661385 -1.35163,4.702566 0,3.06934 1.32348,4.758885 1.32347,1.675465 3.70291,1.675465 2.08378,0 3.21014,-0.999647 1.14044,-0.999647 1.18268,-2.703272 h -4.1957 v -3.646601 h 8.99683 v 2.75959 q 0,2.801829 -1.19677,4.815203 -1.18268,1.999295 -3.26645,3.06934 -2.08377,1.070045 -4.77296,1.070045 z"
       id="text15"
       style="font-weight:800;font-size:28.8349px;font-family:Inter;-inkscape-font-specification:'Inter Ultra-Bold';stroke-width:2.40291"
       aria-label="G" /><path
       d="m 137.25342,-62.571606 v -20.978516 h 8.58852 q 3.54804,0 5.58958,1.886659 2.05561,1.872579 2.05561,5.082714 0,2.168249 -0.95741,3.68884 -0.94333,1.52059 -2.68919,2.309045 l 4.37874,8.011258 h -5.44879 l -3.84371,-7.222804 h -2.70327 v 7.222804 z m 4.97008,-11.150996 h 2.57655 q 3.53397,0 3.53397,-2.858147 0,-2.942624 -3.54805,-2.942624 h -2.56247 z"
       id="text14"
       style="font-weight:800;font-size:28.8349px;font-family:Inter;-inkscape-font-specification:'Inter Ultra-Bold';stroke-width:2.40291"
       aria-label="R" /></g></svg>
